<svg xmlns="http://www.w3.org/2000/svg" width="1920.5" height="3363.5" viewBox="0 0 1920.5 3363.5">
  <g id="Result" transform="translate(0.5 0.5)">
    <path id="Union_5" data-name="Union 5" d="M196.935-2106.514c8.19-12.429,0,257.383,0,257.383Zm473-151c8.19-12.429,0,257.384,0,257.384Zm-590.709,130-.077-.089h-.117a.025.025,0,0,1-.022-.016.026.026,0,0,1,.007-.025l.09-.076v-.118a.022.022,0,0,1,.015-.02.022.022,0,0,1,.025.006l.076.091h.118a.024.024,0,0,1,.022.016.024.024,0,0,1-.007.024l-.09.077v.117a.022.022,0,0,1-.015.021h-.008A.024.024,0,0,1,79.225-2127.513Zm.587-.214-.076-.09h-.118a.021.021,0,0,1-.02-.015.022.022,0,0,1,.006-.025l.09-.076v-.118a.024.024,0,0,1,.015-.022.024.024,0,0,1,.025.008l.076.089.118,0a.02.02,0,0,1,.02.014.023.023,0,0,1-.006.026l-.09.076v.118a.022.022,0,0,1-.015.02H79.83A.02.02,0,0,1,79.812-2127.727Zm-.392-.133-.173-.175-.244-.021a.033.033,0,0,1-.027-.019.034.034,0,0,1,.008-.034l.174-.173.02-.244a.029.029,0,0,1,.02-.026.029.029,0,0,1,.033.007l.173.174.245.021a.032.032,0,0,1,.026.021.032.032,0,0,1-.008.033l-.174.173-.02.245a.031.031,0,0,1-.02.026l-.01,0A.034.034,0,0,1,79.421-2127.86Zm8.55-54.1a.023.023,0,0,1-.01-.024l.019-.116-.075-.092a.022.022,0,0,1,0-.025.021.021,0,0,1,.024-.01l.116.018.091-.075a.025.025,0,0,1,.026,0,.026.026,0,0,1,.011.024l-.02.116.075.091a.022.022,0,0,1,0,.025.023.023,0,0,1-.023.011l-.117-.019-.091.075a.021.021,0,0,1-.015,0Zm-.541-.313a.021.021,0,0,1-.01-.023l.018-.117-.074-.091a.019.019,0,0,1,0-.025.021.021,0,0,1,.023-.01l.117.018.091-.074a.019.019,0,0,1,.025,0,.023.023,0,0,1,.011.023l-.019.116.075.092a.021.021,0,0,1,0,.025.023.023,0,0,1-.023.011l-.117-.019-.091.075a.017.017,0,0,1-.012,0A.027.027,0,0,1,87.43-2182.269Zm.4-.066a.03.03,0,0,1-.016-.031l.022-.243-.141-.2a.034.034,0,0,1,0-.033.032.032,0,0,1,.031-.016l.244.022.2-.141a.029.029,0,0,1,.033,0,.031.031,0,0,1,.016.03l-.022.245.141.2a.034.034,0,0,1,0,.033.031.031,0,0,1-.031.015l-.244-.021-.2.142a.031.031,0,0,1-.018,0A.036.036,0,0,1,87.826-2182.335Zm-1.311-19.339-.207-.552-.552-.207a.113.113,0,0,1-.074-.106.114.114,0,0,1,.074-.106l.552-.207.207-.551a.114.114,0,0,1,.106-.074.114.114,0,0,1,.106.074l.207.551.552.207a.115.115,0,0,1,.073.106.113.113,0,0,1-.073.106l-.552.207-.207.552a.113.113,0,0,1-.106.073A.113.113,0,0,1,86.515-2201.675Zm2.166-.671-.516-1.113-1.113-.516a.156.156,0,0,1-.092-.142.155.155,0,0,1,.092-.141l1.113-.515.515-1.114a.155.155,0,0,1,.141-.091.155.155,0,0,1,.142.091l.516,1.114,1.114.515a.155.155,0,0,1,.091.142.154.154,0,0,1-.091.142l-1.114.515-.515,1.113a.156.156,0,0,1-.141.092A.156.156,0,0,1,88.681-2202.346Zm-2.166-2.454-.207-.552-.552-.207a.114.114,0,0,1-.074-.106.113.113,0,0,1,.074-.106l.552-.208.207-.551a.114.114,0,0,1,.106-.074.114.114,0,0,1,.106.074l.207.551.552.208a.113.113,0,0,1,.073.106.115.115,0,0,1-.073.106l-.552.207-.207.552a.113.113,0,0,1-.106.073A.113.113,0,0,1,86.515-2204.8Zm-5.835-22.953-.5-1.324-1.323-.5a.27.27,0,0,1-.176-.253.27.27,0,0,1,.176-.253l1.323-.5.5-1.323a.27.27,0,0,1,.252-.176.274.274,0,0,1,.254.176l.5,1.323,1.324.5a.272.272,0,0,1,.175.253.272.272,0,0,1-.175.253l-1.324.5-.5,1.324a.274.274,0,0,1-.254.176A.27.27,0,0,1,80.68-2227.752Zm5.2-1.611-1.235-2.674-2.675-1.235a.375.375,0,0,1-.217-.34.375.375,0,0,1,.217-.341l2.673-1.231,1.236-2.675a.371.371,0,0,1,.338-.218.373.373,0,0,1,.341.218l1.237,2.672,2.672,1.235a.376.376,0,0,1,.219.343.37.37,0,0,1-.219.34l-2.674,1.236-1.234,2.67a.372.372,0,0,1-.338.219A.374.374,0,0,1,85.878-2229.363Zm963.942.2h0L207.792-3123.878c-.144-.179-3.583-4.462-9.752-10.765a234.65,234.65,0,0,0-27.1-23.683,190.821,190.821,0,0,0-41.223-23.684,148.576,148.576,0,0,0-24.9-7.8,129,129,0,0,0-27.22-2.961,126.845,126.845,0,0,0-27.066,2.961,142.046,142.046,0,0,0-24.494,7.8,178.359,178.359,0,0,0-39.992,23.684,217.418,217.418,0,0,0-25.868,23.682c-5.834,6.3-9.056,10.586-9.19,10.766l-820.3,773.918V-4526.007H1049.82v2296.843h0v0Zm-129.357-563.65c-.168,0-.346.141-.528.417v257.383c.015-.508,1.917-63.567,2.958-126.285.612-36.871.813-66.542.6-88.19-.267-27.055-1.186-41.582-2.733-43.176a.416.416,0,0,0-.3-.15h0Zm-1553-496c-.169,0-.346.141-.528.418v257.383c.015-.506,1.914-63.376,2.957-126.2.612-36.89.814-66.578.6-88.24-.266-27.076-1.185-41.614-2.733-43.208a.416.416,0,0,0-.3-.15h0Zm419-108.812c-.168,0-.346.141-.528.416v257.384c.015-.506,1.914-63.365,2.957-126.2.612-36.89.814-66.578.6-88.24-.266-27.076-1.186-41.614-2.733-43.207a.411.411,0,0,0-.3-.15h0Zm506-72.188c-.169,0-.346.141-.528.417v257.384c.015-.508,1.918-63.594,2.958-126.286.612-36.867.814-66.539.6-88.188-.267-27.055-1.186-41.582-2.733-43.177a.416.416,0,0,0-.3-.15h0Zm510-82c-.169,0-.346.141-.528.417v257.383c.015-.508,1.917-63.562,2.958-126.285.612-36.871.814-66.542.6-88.19-.267-27.055-1.186-41.582-2.732-43.176a.42.42,0,0,0-.3-.15h0Zm-1275-147c-.168,0-.346.141-.528.417v257.384c.015-.505,1.914-63.363,2.957-126.2.612-36.893.814-66.582.6-88.24-.266-27.076-1.186-41.613-2.733-43.208a.415.415,0,0,0-.3-.15h0Zm937-356c-.168,0-.346.141-.528.417v257.384c.015-.509,1.918-63.593,2.958-126.283.612-36.857.814-66.529.6-88.191-.266-27.055-1.186-41.583-2.733-43.176a.413.413,0,0,0-.3-.151h0ZM66.934-4266.21v257.383c.015-.505,1.914-63.376,2.957-126.2.612-36.9.816-66.585.6-88.241-.266-27.076-1.186-41.613-2.733-43.208a.418.418,0,0,0-.3-.15h0C67.293-4266.626,67.116-4266.486,66.934-4266.21Zm-229-150.217v124.076c0-.193.859-30.3,1.334-60.926.276-17.793.366-32.109.269-42.551-.122-13.041-.538-20.018-1.239-20.737a.183.183,0,0,0-.126-.062C-161.9-4416.628-161.984-4416.56-162.066-4416.427ZM80.68-2235.252l-.5-1.323-1.323-.5a.267.267,0,0,1-.176-.253.27.27,0,0,1,.176-.253l1.323-.5.5-1.324a.272.272,0,0,1,.252-.176.276.276,0,0,1,.254.176l.5,1.324,1.324.5a.272.272,0,0,1,.175.253.27.27,0,0,1-.175.253l-1.324.5-.5,1.323a.274.274,0,0,1-.254.176A.27.27,0,0,1,80.68-2235.252Zm.6-32.512-.662-1.765-1.766-.663a.36.36,0,0,1-.234-.336.363.363,0,0,1,.234-.337l1.766-.663.662-1.765a.363.363,0,0,1,.337-.235.361.361,0,0,1,.337.235l.662,1.765,1.766.663a.362.362,0,0,1,.235.337.359.359,0,0,1-.235.336l-1.766.663-.662,1.765a.361.361,0,0,1-.337.235A.363.363,0,0,1,81.277-2267.765Zm6.932-2.147-1.647-3.565L83-2275.124a.5.5,0,0,1-.29-.453.5.5,0,0,1,.29-.453l3.562-1.644,1.647-3.565a.5.5,0,0,1,.454-.291.5.5,0,0,1,.452.291l1.65,3.562,3.563,1.647a.5.5,0,0,1,.291.457.5.5,0,0,1-.291.453l-3.567,1.647-1.642,3.562a.5.5,0,0,1-.454.291A.5.5,0,0,1,88.209-2269.911Zm-6.932-7.854-.662-1.764-1.766-.663a.363.363,0,0,1-.234-.339.361.361,0,0,1,.234-.336l1.766-.663.662-1.765a.362.362,0,0,1,.337-.234.36.36,0,0,1,.337.234l.662,1.765,1.766.663a.361.361,0,0,1,.235.336.363.363,0,0,1-.235.339l-1.766.663-.662,1.764a.359.359,0,0,1-.337.235A.361.361,0,0,1,81.277-2277.765Zm9.443-5.878-.076-.09h-.118a.021.021,0,0,1-.02-.015.023.023,0,0,1,.006-.025l.091-.077v-.117a.022.022,0,0,1,.015-.021.021.021,0,0,1,.025.006l.077.089.117,0a.024.024,0,0,1,.022.015.023.023,0,0,1-.007.025l-.089.076,0,.118a.02.02,0,0,1-.015.021l-.008,0A.026.026,0,0,1,90.719-2283.643Zm.588-.213-.077-.09h-.117a.023.023,0,0,1-.022-.016.022.022,0,0,1,.007-.024l.089-.076,0-.118a.022.022,0,0,1,.015-.021.026.026,0,0,1,.025.007l.076.09h.118a.023.023,0,0,1,.02.016.021.021,0,0,1-.006.024l-.091.078v.117a.023.023,0,0,1-.016.021l-.007,0A.027.027,0,0,1,91.308-2283.856Zm-.392-.134-.173-.174-.245-.021a.031.031,0,0,1-.026-.021.032.032,0,0,1,.007-.033l.175-.173.019-.245a.035.035,0,0,1,.02-.026.034.034,0,0,1,.034.008l.173.174.243.02a.03.03,0,0,1,.027.021.03.03,0,0,1-.007.033l-.175.173-.019.244a.032.032,0,0,1-.02.027h-.01A.028.028,0,0,1,90.916-2283.99Zm-22.634-21.083a.18.18,0,0,1-.053-.2l.314-.889-.463-.82a.182.182,0,0,1,.018-.2.182.182,0,0,1,.2-.054l.889.313.821-.463a.178.178,0,0,1,.2.019.181.181,0,0,1,.053.2l-.314.889.463.821a.18.18,0,0,1-.018.2.181.181,0,0,1-.2.054l-.888-.315-.822.464a.176.176,0,0,1-.089.024A.178.178,0,0,1,68.282-2305.074Zm-.618-3.188a.247.247,0,0,1-.081-.257l.516-1.892-.836-1.776a.246.246,0,0,1,.034-.267.249.249,0,0,1,.257-.081l1.895.513,1.775-.835a.251.251,0,0,1,.269.034.249.249,0,0,1,.08.258l-.515,1.895.836,1.774a.248.248,0,0,1-.034.267.249.249,0,0,1-.258.081l-1.895-.516-1.778.837a.244.244,0,0,1-.106.024A.247.247,0,0,1,67.664-2308.262Zm-3.212-.024a.181.181,0,0,1-.053-.2l.313-.889-.463-.821a.182.182,0,0,1,.019-.206.184.184,0,0,1,.2-.053l.889.315.82-.465a.184.184,0,0,1,.206.019.182.182,0,0,1,.055.2l-.315.889.463.822a.178.178,0,0,1-.018.2.181.181,0,0,1-.2.054l-.889-.313-.821.463a.186.186,0,0,1-.089.023A.18.18,0,0,1,64.452-2308.286Zm33.311-.893-.455-1.213-1.213-.457a.248.248,0,0,1-.161-.232.248.248,0,0,1,.161-.232l1.213-.456.455-1.214a.251.251,0,0,1,.233-.161.249.249,0,0,1,.232.161l.455,1.214,1.214.456a.248.248,0,0,1,.161.232.248.248,0,0,1-.161.232l-1.214.457-.455,1.213a.249.249,0,0,1-.232.161A.251.251,0,0,1,97.763-2309.179Zm4.766-1.477-1.132-2.45-2.452-1.132a.345.345,0,0,1-.2-.312.343.343,0,0,1,.2-.311l2.45-1.129,1.132-2.452a.342.342,0,0,1,.311-.2.342.342,0,0,1,.311.2l1.135,2.449,2.449,1.132a.343.343,0,0,1,.2.315.342.342,0,0,1-.2.311l-2.451,1.131-1.13,2.449a.342.342,0,0,1-.311.2A.341.341,0,0,1,102.529-2310.655ZM-393.066-2568.4c8.19-12.43,0,257.383,0,257.383ZM97.763-2316.054l-.455-1.213-1.213-.457a.247.247,0,0,1-.161-.231.249.249,0,0,1,.161-.233l1.213-.456.455-1.214a.252.252,0,0,1,.233-.16.25.25,0,0,1,.232.16l.455,1.214,1.214.456a.249.249,0,0,1,.161.233.247.247,0,0,1-.161.231l-1.214.457-.455,1.213a.248.248,0,0,1-.232.161A.249.249,0,0,1,97.763-2316.054Zm-3.555-12.911a.092.092,0,0,1-.06-.083l0-.473-.358-.307a.09.09,0,0,1-.026-.1.089.089,0,0,1,.084-.059l.471,0,.307-.359a.088.088,0,0,1,.1-.026.092.092,0,0,1,.06.084l0,.471.359.307a.092.092,0,0,1,.026.1.09.09,0,0,1-.084.058l-.471.006-.306.358a.1.1,0,0,1-.07.032A.085.085,0,0,1,94.207-2328.966Zm-2.349-.855a.092.092,0,0,1-.06-.084l0-.47-.358-.308a.09.09,0,0,1-.026-.1.089.089,0,0,1,.084-.059l.471,0,.307-.358a.086.086,0,0,1,.1-.026.091.091,0,0,1,.06.083l0,.471.359.307a.092.092,0,0,1,.026.1.091.091,0,0,1-.084.059l-.471,0-.307.358a.092.092,0,0,1-.069.032A.064.064,0,0,1,91.858-2329.821Zm1.535-.528a.128.128,0,0,1-.082-.109l-.082-.978-.7-.69a.124.124,0,0,1-.03-.132.125.125,0,0,1,.107-.082l.977-.081.693-.7a.123.123,0,0,1,.131-.03.124.124,0,0,1,.083.107l.082.978.7.692a.126.126,0,0,1,.028.132.122.122,0,0,1-.107.082l-.978.082-.691.7a.122.122,0,0,1-.089.038A.142.142,0,0,1,93.393-2330.349Zm-30.075-9.078a.073.073,0,0,1-.022-.075l.118-.333-.174-.309a.069.069,0,0,1,.008-.076.068.068,0,0,1,.074-.021l.334.118.308-.174a.068.068,0,0,1,.076.007.069.069,0,0,1,.02.075l-.118.333.174.308a.069.069,0,0,1-.007.077.07.07,0,0,1-.074.019l-.334-.117-.308.173a.06.06,0,0,1-.034.01A.068.068,0,0,1,63.318-2339.427Zm-.233-1.2a.094.094,0,0,1-.03-.1l.194-.71-.315-.666a.094.094,0,0,1,.012-.1.093.093,0,0,1,.1-.031l.711.192.666-.312a.09.09,0,0,1,.1.014.092.092,0,0,1,.03.1l-.193.71.313.667a.092.092,0,0,1-.014.1.091.091,0,0,1-.1.03l-.711-.193-.667.314a.084.084,0,0,1-.04.009A.091.091,0,0,1,63.086-2340.623Zm-1.2-.009a.07.07,0,0,1-.02-.075l.118-.334-.174-.308a.067.067,0,0,1,.007-.076.065.065,0,0,1,.074-.019l.334.117.308-.174a.067.067,0,0,1,.076.007.068.068,0,0,1,.022.074l-.118.334.174.308a.069.069,0,0,1-.008.077.071.071,0,0,1-.074.021l-.334-.118-.307.174a.077.077,0,0,1-.034.009A.067.067,0,0,1,61.882-2340.632Zm47.924-11.381-.373-.993-.993-.374a.2.2,0,0,1-.132-.19.206.206,0,0,1,.132-.19l.993-.373.373-.993a.2.2,0,0,1,.191-.132.2.2,0,0,1,.19.132l.373.993.993.373a.206.206,0,0,1,.132.19.2.2,0,0,1-.132.19l-.993.374-.373.993a.2.2,0,0,1-.19.132A.2.2,0,0,1,109.805-2352.014Zm-4.029-1.208-.925-2-2-.927a.277.277,0,0,1-.164-.254.278.278,0,0,1,.164-.257l2-.926.928-2a.281.281,0,0,1,.256-.164.28.28,0,0,1,.254.164l.926,2.006,2,.925a.278.278,0,0,1,.162.254.277.277,0,0,1-.162.254l-2.006.927-.927,2.006a.28.28,0,0,1-.254.164A.283.283,0,0,1,105.776-2353.221Zm4.029-4.417-.373-.994-.993-.373a.2.2,0,0,1-.132-.19.205.205,0,0,1,.132-.19l.993-.373.373-.993a.2.2,0,0,1,.191-.132.2.2,0,0,1,.19.132l.373.993.993.373a.205.205,0,0,1,.132.19.2.2,0,0,1-.132.19l-.993.373-.373.994a.2.2,0,0,1-.19.132A.2.2,0,0,1,109.805-2357.639Zm-27.469-12.708-1-.823-1.279.212a.25.25,0,0,1-.256-.122.249.249,0,0,1,.023-.281l.824-1-.212-1.28a.25.25,0,0,1,.12-.254.247.247,0,0,1,.282.024l1,.823,1.279-.214a.251.251,0,0,1,.256.12.249.249,0,0,1-.024.282l-.824,1,.214,1.279a.25.25,0,0,1-.122.255.247.247,0,0,1-.123.033A.258.258,0,0,1,82.336-2370.347Zm5.954-3.438-1-.823-1.279.212a.246.246,0,0,1-.256-.12.247.247,0,0,1,.023-.282l.824-1-.212-1.278a.248.248,0,0,1,.122-.257.249.249,0,0,1,.281.024l1,.824,1.279-.212a.252.252,0,0,1,.256.12.249.249,0,0,1-.024.282l-.824,1,.212,1.279a.248.248,0,0,1-.12.256.242.242,0,0,1-.124.034A.247.247,0,0,1,88.291-2373.785Zm-4.444-.727-2.206-1.557-2.69.245a.338.338,0,0,1-.328-.17.342.342,0,0,1,.017-.369l1.556-2.2-.244-2.69a.34.34,0,0,1,.169-.329.344.344,0,0,1,.371.017l2.2,1.555,2.689-.242a.345.345,0,0,1,.329.169.342.342,0,0,1-.018.37l-1.556,2.206.245,2.687a.34.34,0,0,1-.169.328.345.345,0,0,1-.173.047A.333.333,0,0,1,83.847-2374.512Zm34.665-38.287-.828-2.208-2.208-.828a.451.451,0,0,1-.292-.421.451.451,0,0,1,.292-.421l2.208-.828.828-2.208a.45.45,0,0,1,.421-.292.45.45,0,0,1,.421.292l.828,2.208,2.208.828a.451.451,0,0,1,.292.421.451.451,0,0,1-.292.421l-2.208.828-.828,2.208a.451.451,0,0,1-.421.292A.451.451,0,0,1,118.512-2412.8Zm-8.953-2.684-2.055-4.454L103.047-2422a.617.617,0,0,1-.363-.567.621.621,0,0,1,.363-.569l4.453-2.059,2.063-4.454a.623.623,0,0,1,.567-.362.622.622,0,0,1,.566.362l2.058,4.458,4.454,2.055a.621.621,0,0,1,.363.566.62.62,0,0,1-.363.566l-4.457,2.059-2.058,4.457a.623.623,0,0,1-.567.363A.621.621,0,0,1,109.559-2415.483Zm8.953-9.816-.828-2.207-2.208-.829a.451.451,0,0,1-.292-.421.452.452,0,0,1,.292-.421l2.208-.828.828-2.207a.451.451,0,0,1,.421-.293.451.451,0,0,1,.421.293l.828,2.207,2.208.828a.452.452,0,0,1,.292.421.451.451,0,0,1-.292.421l-2.208.829-.828,2.207a.451.451,0,0,1-.421.292A.451.451,0,0,1,118.512-2425.3Zm-41.964-18.4-1.614-4.3-4.3-1.614a.883.883,0,0,1-.571-.823.881.881,0,0,1,.571-.823l4.3-1.615,1.614-4.3a.882.882,0,0,1,.822-.572.883.883,0,0,1,.824.572l1.614,4.3,4.3,1.615a.881.881,0,0,1,.571.823.883.883,0,0,1-.571.823l-4.3,1.614-1.614,4.3a.882.882,0,0,1-.824.57A.881.881,0,0,1,76.548-2443.7Zm-17.458-5.233-4.006-8.684-8.692-4.014a1.205,1.205,0,0,1-.708-1.105,1.215,1.215,0,0,1,.708-1.111l8.684-4.015,4.022-8.683a1.211,1.211,0,0,1,1.1-.709,1.211,1.211,0,0,1,1.1.709l4.015,8.691L74-2463.85a1.212,1.212,0,0,1,.709,1.1,1.212,1.212,0,0,1-.709,1.1l-8.691,4.014-4.014,8.692a1.215,1.215,0,0,1-1.1.708A1.215,1.215,0,0,1,59.09-2448.936Zm17.458-19.143-1.614-4.3L70.63-2474a.881.881,0,0,1-.571-.823.88.88,0,0,1,.571-.822l4.3-1.615,1.614-4.3a.882.882,0,0,1,.822-.572.883.883,0,0,1,.824.572l1.614,4.3,4.3,1.615a.88.88,0,0,1,.571.822.881.881,0,0,1-.571.823l-4.3,1.614-1.614,4.3a.883.883,0,0,1-.824.571A.882.882,0,0,1,76.548-2468.079Zm3.7-27.655a.228.228,0,0,1-.149-.209l-.011-1.179-.9-.765a.224.224,0,0,1-.065-.249.226.226,0,0,1,.209-.149l1.179-.011.767-.9a.226.226,0,0,1,.248-.065.227.227,0,0,1,.149.21l.011,1.178.9.767a.226.226,0,0,1,.066.249.227.227,0,0,1-.21.148l-1.179.011-.766.9a.231.231,0,0,1-.173.078A.226.226,0,0,1,80.249-2495.734Zm-5.874-2.137a.228.228,0,0,1-.148-.21l-.011-1.179-.9-.765a.225.225,0,0,1-.066-.249.226.226,0,0,1,.21-.149l1.179-.011.766-.9a.226.226,0,0,1,.249-.066.226.226,0,0,1,.148.21l.012,1.178.9.767a.225.225,0,0,1,.065.249.223.223,0,0,1-.21.148l-1.178.011-.767.9a.227.227,0,0,1-.172.079A.221.221,0,0,1,74.375-2497.871Zm3.839-1.324a.312.312,0,0,1-.2-.267l-.2-2.447-1.742-1.73a.31.31,0,0,1-.074-.327.312.312,0,0,1,.267-.2l2.444-.2,1.729-1.741a.31.31,0,0,1,.329-.074.311.311,0,0,1,.2.268l.207,2.444,1.739,1.731a.308.308,0,0,1,.074.327.31.31,0,0,1-.267.2l-2.447.206-1.727,1.74a.311.311,0,0,1-.221.093A.312.312,0,0,1,78.214-2499.2Zm34.754-5.933-1.95-1.1-2.113.745a.429.429,0,0,1-.47-.13.427.427,0,0,1-.044-.485l1.1-1.95-.745-2.112a.433.433,0,0,1,.128-.471.429.429,0,0,1,.486-.044l1.95,1.1,2.112-.745a.428.428,0,0,1,.47.128.427.427,0,0,1,.045.486l-1.1,1.95.745,2.112a.43.43,0,0,1-.127.47.432.432,0,0,1-.276.1A.424.424,0,0,1,112.969-2505.128Zm1.32-7.535-4.22-1.987-4.5,1.223a.6.6,0,0,1-.61-.191.591.591,0,0,1-.081-.634l1.986-4.214-1.223-4.5a.587.587,0,0,1,.191-.61.593.593,0,0,1,.636-.084l4.218,1.983,4.5-1.218a.593.593,0,0,1,.611.191.591.591,0,0,1,.081.634l-1.987,4.22,1.224,4.495a.594.594,0,0,1-.191.611.6.6,0,0,1-.381.139A.585.585,0,0,1,114.289-2512.663Zm7.776-.1-1.95-1.1-2.112.744a.43.43,0,0,1-.471-.127.43.43,0,0,1-.044-.486l1.1-1.95-.745-2.112a.432.432,0,0,1,.127-.471.429.429,0,0,1,.486-.044l1.95,1.1,2.113-.745a.43.43,0,0,1,.47.127.429.429,0,0,1,.044.486l-1.1,1.95.744,2.113a.427.427,0,0,1-.127.47.43.43,0,0,1-.275.1A.425.425,0,0,1,122.065-2512.761ZM65.721-2529.91l-.787-2.1-2.1-.788a.426.426,0,0,1-.278-.4.428.428,0,0,1,.278-.4l2.1-.786.787-2.1a.426.426,0,0,1,.4-.278.428.428,0,0,1,.4.278l.786,2.1,2.1.786a.428.428,0,0,1,.278.4.426.426,0,0,1-.278.4l-2.1.788-.786,2.1a.43.43,0,0,1-.4.278A.427.427,0,0,1,65.721-2529.91Zm-8.507-2.55-1.951-4.23-4.235-1.955a.589.589,0,0,1-.345-.539.593.593,0,0,1,.345-.542l4.23-1.956,1.959-4.23a.592.592,0,0,1,.538-.345.592.592,0,0,1,.538.345l1.956,4.233,4.23,1.953a.59.59,0,0,1,.345.538.587.587,0,0,1-.345.537l-4.235,1.956-1.955,4.233a.591.591,0,0,1-.538.346A.591.591,0,0,1,57.214-2532.46Zm8.507-9.324-.787-2.1-2.1-.787a.426.426,0,0,1-.278-.4.427.427,0,0,1,.278-.4l2.1-.787.787-2.1a.427.427,0,0,1,.4-.28.429.429,0,0,1,.4.28l.786,2.1,2.1.787a.427.427,0,0,1,.278.4.426.426,0,0,1-.278.4l-2.1.787-.786,2.1a.43.43,0,0,1-.4.278A.427.427,0,0,1,65.721-2541.785Zm54.646-30.78-1.027-.579-1.112.392a.226.226,0,0,1-.248-.067.225.225,0,0,1-.023-.256l.578-1.027-.392-1.112a.226.226,0,0,1,.068-.248.224.224,0,0,1,.256-.023l1.026.579,1.112-.393a.227.227,0,0,1,.248.068.227.227,0,0,1,.024.256l-.579,1.026.392,1.112a.226.226,0,0,1-.067.248.224.224,0,0,1-.144.053A.227.227,0,0,1,120.367-2572.565Zm.694-3.967-2.221-1.046-2.369.644a.309.309,0,0,1-.32-.1.311.311,0,0,1-.043-.334l1.045-2.217-.643-2.369a.305.305,0,0,1,.1-.32.308.308,0,0,1,.334-.044l2.221,1.044,2.368-.642a.31.31,0,0,1,.321.1.309.309,0,0,1,.043.333l-1.046,2.221.644,2.366a.31.31,0,0,1-.1.321.312.312,0,0,1-.2.073A.309.309,0,0,1,121.061-2576.531Zm4.093-.051-1.026-.579-1.112.392a.225.225,0,0,1-.248-.067.225.225,0,0,1-.023-.256l.578-1.027-.392-1.111a.23.23,0,0,1,.067-.249.226.226,0,0,1,.257-.023l1.026.579,1.112-.393a.226.226,0,0,1,.248.068.223.223,0,0,1,.023.256l-.578,1.027.392,1.111a.226.226,0,0,1-.067.248.225.225,0,0,1-.144.053A.234.234,0,0,1,125.153-2576.583ZM97.375-2578.5l-2.442-6.511-6.511-2.443a1.336,1.336,0,0,1-.864-1.245,1.333,1.333,0,0,1,.864-1.244l6.511-2.443,2.442-6.511a1.335,1.335,0,0,1,1.245-.865,1.334,1.334,0,0,1,1.245.865l2.442,6.511,6.511,2.443a1.332,1.332,0,0,1,.866,1.244,1.335,1.335,0,0,1-.866,1.245l-6.511,2.443-2.442,6.511a1.334,1.334,0,0,1-1.245.863A1.335,1.335,0,0,1,97.375-2578.5Zm-26.411-7.917L64.9-2599.55l-13.148-6.072a1.823,1.823,0,0,1-1.072-1.671,1.84,1.84,0,0,1,1.072-1.682l13.136-6.072,6.085-13.138a1.835,1.835,0,0,1,1.67-1.071,1.838,1.838,0,0,1,1.672,1.071l6.072,13.149,13.136,6.061A1.836,1.836,0,0,1,94.6-2607.3a1.836,1.836,0,0,1-1.072,1.671l-13.148,6.073-6.074,13.149a1.835,1.835,0,0,1-1.671,1.071A1.838,1.838,0,0,1,70.964-2586.412Zm26.411-28.958-2.442-6.512-6.511-2.442a1.335,1.335,0,0,1-.864-1.245,1.337,1.337,0,0,1,.864-1.245l6.511-2.442,2.442-6.511a1.337,1.337,0,0,1,1.245-.864,1.335,1.335,0,0,1,1.245.864l2.442,6.511,6.511,2.442a1.336,1.336,0,0,1,.866,1.245,1.335,1.335,0,0,1-.866,1.245l-6.511,2.442-2.442,6.512a1.334,1.334,0,0,1-1.245.863A1.335,1.335,0,0,1,97.375-2615.371Zm40.636-31.778a8.743,8.743,0,0,1-1.706-.415c-.22-.08-.975-1.27-1.552-4.846a147.4,147.4,0,0,1-1.488-15.142v0l-10.61-176.5-11.956,4.458v16.666c0,11.381-11.538,33.87-20.607,33.653s-20.606-22.271-20.606-33.653v-16.415l-12.8-4.774L45.7-2669.554v0a141.194,141.194,0,0,1-1.56,15.141c-.6,3.577-1.394,4.768-1.624,4.847a9.6,9.6,0,0,1-1.786.415,16.228,16.228,0,0,1-2.235.142,15.689,15.689,0,0,1-3.769-.417,9.669,9.669,0,0,1-2.852-1.19A8.247,8.247,0,0,1,29.8-2652.5a10.474,10.474,0,0,1-1.421-2.5,17.051,17.051,0,0,1-.892-3.037,31.239,31.239,0,0,1-.484-3.5c-.219-2.528-.237-5.349-.237-8.021v0h0l-8.879-212.934a20.575,20.575,0,0,1,.418-4.136,20.354,20.354,0,0,1,1.2-3.855,20.438,20.438,0,0,1,1.9-3.489,20.7,20.7,0,0,1,2.516-3.041,20.667,20.667,0,0,1,3.05-2.508,20.516,20.516,0,0,1,3.5-1.895,20.64,20.64,0,0,1,3.868-1.2,20.877,20.877,0,0,1,4.153-.417,20.9,20.9,0,0,1,4.154.417,20.629,20.629,0,0,1,3.867,1.2,20.569,20.569,0,0,1,3.5,1.895,20.717,20.717,0,0,1,3.049,2.508,20.63,20.63,0,0,1,2.516,3.041,20.438,20.438,0,0,1,1.9,3.489,20.353,20.353,0,0,1,1.2,3.855,20.623,20.623,0,0,1,.419,4.135l-.717,11.386,11.1-2.017V-2918.9a112.275,112.275,0,0,1-90.3-109.962c0-61.936,50.368-112.145,112.5-112.145s112.5,50.209,112.5,112.145c0,55.475-40.409,101.542-93.485,110.549V-2873l10.33,1.876-.563-9.369a21.591,21.591,0,0,1,.4-4.135,21.083,21.083,0,0,1,1.147-3.855,20.835,20.835,0,0,1,1.814-3.49,20.5,20.5,0,0,1,2.4-3.04,19.941,19.941,0,0,1,2.912-2.508,19.464,19.464,0,0,1,3.344-1.894,18.879,18.879,0,0,1,3.694-1.2,19.081,19.081,0,0,1,3.966-.417,19.073,19.073,0,0,1,3.966.417,18.914,18.914,0,0,1,3.7,1.2,19.41,19.41,0,0,1,3.343,1.894,19.823,19.823,0,0,1,2.912,2.508,20.508,20.508,0,0,1,2.4,3.04,20.835,20.835,0,0,1,1.814,3.49,21.079,21.079,0,0,1,1.146,3.855,21.608,21.608,0,0,1,.4,4.137l-8.48,212.933v0h0c0,2.673-.017,5.493-.227,8.021a32.363,32.363,0,0,1-.462,3.494,17.378,17.378,0,0,1-.852,3.037,10.614,10.614,0,0,1-1.356,2.5,8.037,8.037,0,0,1-1.979,1.883,9.039,9.039,0,0,1-2.725,1.19,14.336,14.336,0,0,1-3.6.417A14.8,14.8,0,0,1,138.011-2647.149Zm-17.547-233.339v0Zm-61.367-2v0Z" transform="translate(869.317 4526.007)" stroke="#707070" stroke-width="1"/>
    <rect id="Shape" width="1920" height="2522" transform="translate(0 841)" fill="none"/>
  </g>
</svg>
