<svg xmlns="http://www.w3.org/2000/svg" width="81.163" height="509.19" viewBox="0 0 81.163 509.19">
  <g id="Tail" transform="translate(-915 -1889.375)">
    <path id="Path_61" data-name="Path 61" d="M24.946-27.635a.881.881,0,0,0-.571.823.881.881,0,0,0,.571.823l4.3,1.615,1.615,4.3a.881.881,0,0,0,.823.571.881.881,0,0,0,.823-.571l1.615-4.3,4.3-1.615A.881.881,0,0,0,39-26.812a.881.881,0,0,0-.571-.823l-4.3-1.615-1.615-4.3a.881.881,0,0,0-.823-.571.881.881,0,0,0-.823.571l-1.615,4.3Zm-9.323-.906a1.214,1.214,0,0,0-1.1-.708,1.214,1.214,0,0,0-1.1.708L9.392-19.858.708-15.844A1.217,1.217,0,0,0,0-14.732a1.206,1.206,0,0,0,.708,1.1L9.4-9.613,13.406-.929a1.214,1.214,0,0,0,1.1.708,1.214,1.214,0,0,0,1.1-.708l4.014-8.691,8.691-4.014a1.214,1.214,0,0,0,.708-1.1,1.214,1.214,0,0,0-.708-1.1L19.637-19.85l-4.014-8.691ZM29.25-4.875l-4.3,1.615a.881.881,0,0,0-.571.823.881.881,0,0,0,.571.823L29.25,0l1.615,4.3a.878.878,0,0,0,1.645,0L34.125,0l4.3-1.615A.881.881,0,0,0,39-2.437a.881.881,0,0,0-.571-.823l-4.3-1.615-1.615-4.3a.881.881,0,0,0-.823-.571.881.881,0,0,0-.823.571Z" transform="translate(915 2078)"/>
    <path id="Path_60" data-name="Path 60" d="M10.234-.663A.362.362,0,0,1,10-1a.362.362,0,0,1,.234-.337L12-2l.663-1.766A.362.362,0,0,1,13-4a.362.362,0,0,1,.337.234L14-2l1.766.663A.362.362,0,0,1,16-1a.362.362,0,0,1-.234.337L14,0l-.663,1.766a.36.36,0,0,1-.675,0L12,0ZM6.409-.291A.5.5,0,0,1,5.956,0,.5.5,0,0,1,5.5-.291L3.853-3.853.291-5.5A.5.5,0,0,1,0-5.956a.5.5,0,0,1,.291-.453L3.856-8.056,5.5-11.619a.5.5,0,0,1,.453-.291.5.5,0,0,1,.453.291L8.053-8.053l3.566,1.647a.5.5,0,0,1,.291.453.5.5,0,0,1-.291.453L8.056-3.856,6.409-.291ZM12-10l-1.766-.663A.362.362,0,0,1,10-11a.362.362,0,0,1,.234-.337L12-12l.663-1.766A.362.362,0,0,1,13-14a.362.362,0,0,1,.337.234L14-12l1.766.663A.362.362,0,0,1,16-11a.362.362,0,0,1-.234.337L14-10l-.663,1.766A.362.362,0,0,1,13-8a.362.362,0,0,1-.337-.234Z" transform="translate(963.931 2244.477) rotate(180)"/>
    <path id="Path_59" data-name="Path 59" d="M37.739-41.807a1.333,1.333,0,0,0-.864,1.245,1.333,1.333,0,0,0,.864,1.245l6.511,2.443,2.443,6.511a1.333,1.333,0,0,0,1.245.864,1.333,1.333,0,0,0,1.245-.864l2.443-6.511,6.511-2.443A1.333,1.333,0,0,0,59-40.562a1.333,1.333,0,0,0-.864-1.245L51.625-44.25l-2.443-6.511a1.333,1.333,0,0,0-1.245-.864,1.333,1.333,0,0,0-1.245.864L44.25-44.25Zm-14.1-1.371a1.836,1.836,0,0,0-1.671-1.072,1.836,1.836,0,0,0-1.671,1.072L14.208-30.042,1.072-23.969A1.841,1.841,0,0,0,0-22.286a1.824,1.824,0,0,0,1.072,1.671L14.22-14.543,20.281-1.406A1.836,1.836,0,0,0,21.952-.334a1.836,1.836,0,0,0,1.671-1.072L29.7-14.554l13.148-6.073A1.836,1.836,0,0,0,43.916-22.3a1.836,1.836,0,0,0-1.072-1.671L29.707-30.03,23.635-43.178ZM44.25-7.375,37.739-4.932a1.333,1.333,0,0,0-.864,1.245,1.333,1.333,0,0,0,.864,1.245L44.25,0l2.443,6.511a1.328,1.328,0,0,0,2.489,0L51.625,0l6.511-2.443A1.333,1.333,0,0,0,59-3.687a1.333,1.333,0,0,0-.864-1.245L51.625-7.375l-2.443-6.511a1.333,1.333,0,0,0-1.245-.864,1.333,1.333,0,0,0-1.245.864Z" transform="translate(920 1941)"/>
    <path id="Path_58" data-name="Path 58" d="M12.153-13.463a.429.429,0,0,0-.278.4.429.429,0,0,0,.278.4l2.1.787.787,2.1a.429.429,0,0,0,.4.278.429.429,0,0,0,.4-.278l.787-2.1,2.1-.787a.429.429,0,0,0,.278-.4.429.429,0,0,0-.278-.4l-2.1-.787-.787-2.1a.429.429,0,0,0-.4-.278.429.429,0,0,0-.4.278l-.787,2.1ZM7.611-13.9a.591.591,0,0,0-.538-.345.591.591,0,0,0-.538.345L4.576-9.674.345-7.719A.593.593,0,0,0,0-7.177a.587.587,0,0,0,.345.538L4.579-4.683,6.531-.453a.591.591,0,0,0,.538.345.591.591,0,0,0,.538-.345L9.563-4.687,13.8-6.643a.591.591,0,0,0,.345-.538.591.591,0,0,0-.345-.538L9.567-9.671,7.611-13.9ZM14.25-2.375l-2.1.787a.429.429,0,0,0-.278.4.429.429,0,0,0,.278.4L14.25,0l.787,2.1a.428.428,0,0,0,.8,0L16.625,0l2.1-.787a.429.429,0,0,0,.278-.4.429.429,0,0,0-.278-.4l-2.1-.787-.787-2.1a.429.429,0,0,0-.4-.278.429.429,0,0,0-.4.278Z" transform="translate(920 1994)"/>
    <path id="Path_57" data-name="Path 57" d="M7.036-1.205a.249.249,0,0,1-.161-.232.249.249,0,0,1,.161-.232L8.25-2.125l.455-1.214A.249.249,0,0,1,8.938-3.5a.249.249,0,0,1,.232.161l.455,1.214,1.214.455A.249.249,0,0,1,11-1.437a.249.249,0,0,1-.161.232L9.625-.75,9.17.464a.248.248,0,0,1-.464,0L8.25-.75ZM4.406-.95a.342.342,0,0,1-.312.2.342.342,0,0,1-.312-.2L2.649-3.4.2-4.531A.343.343,0,0,1,0-4.845a.34.34,0,0,1,.2-.312L2.651-6.289l1.13-2.449a.342.342,0,0,1,.312-.2.342.342,0,0,1,.312.2L5.537-6.287,7.988-5.154a.342.342,0,0,1,.2.312.342.342,0,0,1-.2.312L5.539-3.4,4.406-.95ZM8.25-7.625,7.036-8.08a.249.249,0,0,1-.161-.232.249.249,0,0,1,.161-.232L8.25-9l.455-1.214a.249.249,0,0,1,.232-.161.249.249,0,0,1,.232.161L9.625-9l1.214.455A.249.249,0,0,1,11-8.312a.249.249,0,0,1-.161.232l-1.214.455L9.17-6.411a.249.249,0,0,1-.232.161.249.249,0,0,1-.232-.161Z" transform="translate(976.25 2206.614) rotate(180)"/>
    <path id="Path_56" data-name="Path 56" d="M7.036-7.795a.249.249,0,0,0-.161.232.249.249,0,0,0,.161.232l1.214.455.455,1.214a.249.249,0,0,0,.232.161.249.249,0,0,0,.232-.161l.455-1.214,1.214-.455A.249.249,0,0,0,11-7.562a.249.249,0,0,0-.161-.232L9.625-8.25,9.17-9.464a.249.249,0,0,0-.232-.161.249.249,0,0,0-.232.161L8.25-8.25ZM4.406-8.05a.342.342,0,0,0-.312-.2.342.342,0,0,0-.312.2L2.649-5.6.2-4.469a.343.343,0,0,0-.2.314.34.34,0,0,0,.2.312L2.651-2.711,3.781-.262a.342.342,0,0,0,.312.2.342.342,0,0,0,.312-.2L5.537-2.713,7.988-3.846a.342.342,0,0,0,.2-.312.342.342,0,0,0-.2-.312L5.539-5.6,4.406-8.05ZM8.25-1.375,7.036-.92a.249.249,0,0,0-.161.232.249.249,0,0,0,.161.232L8.25,0l.455,1.214a.248.248,0,0,0,.464,0L9.625,0l1.214-.455A.249.249,0,0,0,11-.687a.249.249,0,0,0-.161-.232L9.625-1.375,9.17-2.589a.249.249,0,0,0-.232-.161.249.249,0,0,0-.232.161Z" transform="translate(945.84 2146.5) rotate(60)"/>
    <path id="Path_55" data-name="Path 55" d="M.64.709a.023.023,0,0,1,0-.042L.75.625.791.515a.023.023,0,0,1,.042,0l.041.11.11.041a.023.023,0,0,1,0,.042L.875.75.834.86a.023.023,0,0,1-.042,0L.75.75ZM.4.732a.031.031,0,0,1-.057,0L.241.509.018.406a.031.031,0,0,1,0-.057l.223-.1.1-.223A.031.031,0,0,1,.4.024L.5.247l.223.1a.031.031,0,0,1,0,.057L.5.509.4.732ZM.75.125.64.084a.023.023,0,0,1,0-.042L.75,0,.791-.11A.023.023,0,0,1,.813-.125.023.023,0,0,1,.834-.11L.875,0l.11.041a.023.023,0,0,1,0,.042L.875.125.834.235a.023.023,0,0,1-.042,0Z" transform="translate(957.842 2343.216) rotate(120)"/>
    <path id="Path_54" data-name="Path 54" d="M12.153-13.463a.429.429,0,0,0-.278.4.429.429,0,0,0,.278.4l2.1.787.787,2.1a.429.429,0,0,0,.4.278.429.429,0,0,0,.4-.278l.787-2.1,2.1-.787a.429.429,0,0,0,.278-.4.429.429,0,0,0-.278-.4l-2.1-.787-.787-2.1a.429.429,0,0,0-.4-.278.429.429,0,0,0-.4.278l-.787,2.1ZM7.611-13.9a.591.591,0,0,0-.538-.345.591.591,0,0,0-.538.345L4.576-9.674.345-7.719A.593.593,0,0,0,0-7.177a.587.587,0,0,0,.345.538L4.579-4.683,6.531-.453a.591.591,0,0,0,.538.345.591.591,0,0,0,.538-.345L9.563-4.687,13.8-6.643a.591.591,0,0,0,.345-.538.591.591,0,0,0-.345-.538L9.567-9.671,7.611-13.9ZM14.25-2.375l-2.1.787a.429.429,0,0,0-.278.4.429.429,0,0,0,.278.4L14.25,0l.787,2.1a.428.428,0,0,0,.8,0L16.625,0l2.1-.787a.429.429,0,0,0,.278-.4.429.429,0,0,0-.278-.4l-2.1-.787-.787-2.1a.429.429,0,0,0-.4-.278.429.429,0,0,0-.4.278Z" transform="translate(969.648 2007.043) rotate(50)"/>
    <path id="Path_53" data-name="Path 53" d="M5.117-.331A.181.181,0,0,1,5-.5a.181.181,0,0,1,.117-.169L6-1l.331-.883A.181.181,0,0,1,6.5-2a.181.181,0,0,1,.169.117L7-1l.883.331A.181.181,0,0,1,8-.5a.181.181,0,0,1-.117.169L7,0,6.669.883a.18.18,0,0,1-.337,0L6,0ZM3.2-.145A.249.249,0,0,1,2.978,0a.249.249,0,0,1-.227-.145L1.927-1.927.145-2.75A.25.25,0,0,1,0-2.978.247.247,0,0,1,.145-3.2l1.783-.823L2.75-5.809a.249.249,0,0,1,.227-.145.249.249,0,0,1,.227.145l.823,1.783L5.809-3.2a.249.249,0,0,1,.145.227.249.249,0,0,1-.145.227l-1.781.822L3.2-.145ZM6-5l-.883-.331A.181.181,0,0,1,5-5.5a.181.181,0,0,1,.117-.169L6-6l.331-.883A.181.181,0,0,1,6.5-7a.181.181,0,0,1,.169.117L7-6l.883.331A.181.181,0,0,1,8-5.5a.181.181,0,0,1-.117.169L7-5l-.331.883A.181.181,0,0,1,6.5-4a.181.181,0,0,1-.169-.117Z" transform="translate(938.528 2211.271) rotate(130)"/>
    <path id="Path_52" data-name="Path 52" d="M2.559-2.834A.09.09,0,0,0,2.5-2.75a.09.09,0,0,0,.059.084L3-2.5l.166.441A.09.09,0,0,0,3.25-2a.09.09,0,0,0,.084-.059L3.5-2.5l.441-.166A.09.09,0,0,0,4-2.75a.09.09,0,0,0-.059-.084L3.5-3l-.166-.441A.09.09,0,0,0,3.25-3.5a.09.09,0,0,0-.084.059L3-3ZM1.6-2.927A.125.125,0,0,0,1.489-3a.125.125,0,0,0-.113.073l-.413.891-.891.412A.125.125,0,0,0,0-1.511.124.124,0,0,0,.073-1.4l.891.412L1.375-.1a.125.125,0,0,0,.113.073A.125.125,0,0,0,1.6-.1l.412-.891L2.9-1.4a.125.125,0,0,0,.073-.113A.125.125,0,0,0,2.9-1.625l-.891-.411L1.6-2.927ZM3-.5l-.441.166A.09.09,0,0,0,2.5-.25a.09.09,0,0,0,.059.084L3,0l.166.441a.09.09,0,0,0,.169,0L3.5,0l.441-.166A.09.09,0,0,0,4-.25a.09.09,0,0,0-.059-.084L3.5-.5,3.334-.941A.09.09,0,0,0,3.25-1a.09.09,0,0,0-.084.059Z" transform="matrix(-0.342, 0.94, -0.94, -0.342, 962.308, 2192.342)"/>
    <path id="Path_51" data-name="Path 51" d="M.64.709a.023.023,0,0,1,0-.042L.75.625.791.515a.023.023,0,0,1,.042,0l.041.11.11.041a.023.023,0,0,1,0,.042L.875.75.834.86a.023.023,0,0,1-.042,0L.75.75ZM.4.732a.031.031,0,0,1-.057,0L.241.509.018.406a.031.031,0,0,1,0-.057l.223-.1.1-.223A.031.031,0,0,1,.4.024L.5.247l.223.1a.031.031,0,0,1,0,.057L.5.509.4.732ZM.75.125.64.084a.023.023,0,0,1,0-.042L.75,0,.791-.11A.023.023,0,0,1,.813-.125.023.023,0,0,1,.834-.11L.875,0l.11.041a.023.023,0,0,1,0,.042L.875.125.834.235a.023.023,0,0,1-.042,0Z" transform="translate(948.871 2397.326) rotate(70)"/>
    <path id="Path_50" data-name="Path 50" d="M6.4-7.086a.226.226,0,0,0-.146.211.226.226,0,0,0,.146.211l1.1.414.414,1.1A.226.226,0,0,0,8.125-5a.226.226,0,0,0,.211-.146l.414-1.1,1.1-.414A.226.226,0,0,0,10-6.875a.226.226,0,0,0-.146-.211L8.75-7.5,8.336-8.6a.226.226,0,0,0-.211-.146.226.226,0,0,0-.211.146L7.5-7.5ZM4.006-7.318A.311.311,0,0,0,3.723-7.5a.311.311,0,0,0-.283.182L2.408-5.092.182-4.062A.312.312,0,0,0,0-3.777a.309.309,0,0,0,.182.283L2.41-2.465,3.438-.238a.311.311,0,0,0,.283.182A.311.311,0,0,0,4-.238L5.033-2.467,7.262-3.5a.311.311,0,0,0,.182-.283.311.311,0,0,0-.182-.283L5.035-5.09,4.006-7.318ZM7.5-1.25,6.4-.836a.226.226,0,0,0-.146.211A.226.226,0,0,0,6.4-.414L7.5,0l.414,1.1a.225.225,0,0,0,.422,0L8.75,0l1.1-.414A.226.226,0,0,0,10-.625a.226.226,0,0,0-.146-.211L8.75-1.25l-.414-1.1A.226.226,0,0,0,8.125-2.5a.226.226,0,0,0-.211.146Z" transform="translate(983.032 1946.16) rotate(50)"/>
    <path id="Path_49" data-name="Path 49" d="M1.919.126a.068.068,0,0,1,0-.127L2.25-.125l.124-.331A.068.068,0,0,1,2.438-.5.068.068,0,0,1,2.5-.456l.124.331L2.956,0a.068.068,0,0,1,0,.127L2.625.25,2.5.581a.068.068,0,0,1-.127,0L2.25.25ZM1.2.2a.093.093,0,0,1-.17,0L.722-.472.054-.781A.094.094,0,0,1,0-.867.093.093,0,0,1,.054-.952l.669-.309.308-.668a.093.093,0,0,1,.085-.054.093.093,0,0,1,.085.054l.309.669.669.309a.093.093,0,0,1,.054.085.093.093,0,0,1-.054.085l-.668.308ZM2.25-1.625l-.331-.124a.068.068,0,0,1-.044-.063.068.068,0,0,1,.044-.063L2.25-2l.124-.331a.068.068,0,0,1,.063-.044.068.068,0,0,1,.063.044L2.625-2l.331.124A.068.068,0,0,1,3-1.812a.068.068,0,0,1-.044.063l-.331.124L2.5-1.294a.068.068,0,0,1-.063.044.068.068,0,0,1-.063-.044Z" transform="translate(933.175 2183.116) rotate(130)"/>
    <path id="Path_48" data-name="Path 48" d="M6.4-7.086a.226.226,0,0,0-.146.211.226.226,0,0,0,.146.211l1.1.414.414,1.1A.226.226,0,0,0,8.125-5a.226.226,0,0,0,.211-.146l.414-1.1,1.1-.414A.226.226,0,0,0,10-6.875a.226.226,0,0,0-.146-.211L8.75-7.5,8.336-8.6a.226.226,0,0,0-.211-.146.226.226,0,0,0-.211.146L7.5-7.5ZM4.006-7.318A.311.311,0,0,0,3.723-7.5a.311.311,0,0,0-.283.182L2.408-5.092.182-4.062A.312.312,0,0,0,0-3.777a.309.309,0,0,0,.182.283L2.41-2.465,3.438-.238a.311.311,0,0,0,.283.182A.311.311,0,0,0,4-.238L5.033-2.467,7.262-3.5a.311.311,0,0,0,.182-.283.311.311,0,0,0-.182-.283L5.035-5.09,4.006-7.318ZM7.5-1.25,6.4-.836a.226.226,0,0,0-.146.211A.226.226,0,0,0,6.4-.414L7.5,0l.414,1.1a.225.225,0,0,0,.422,0L8.75,0l1.1-.414A.226.226,0,0,0,10-.625a.226.226,0,0,0-.146-.211L8.75-1.25l-.414-1.1A.226.226,0,0,0,8.125-2.5a.226.226,0,0,0-.211.146Z" transform="matrix(-0.342, 0.94, -0.94, -0.342, 946.525, 2018.525)"/>
    <path id="Path_47" data-name="Path 47" d="M.64.709a.023.023,0,0,1,0-.042L.75.625.791.515a.023.023,0,0,1,.042,0l.041.11.11.041a.023.023,0,0,1,0,.042L.875.75.834.86a.023.023,0,0,1-.042,0L.75.75ZM.4.732a.031.031,0,0,1-.057,0L.241.509.018.406a.031.031,0,0,1,0-.057l.223-.1.1-.223A.031.031,0,0,1,.4.024L.5.247l.223.1a.031.031,0,0,1,0,.057L.5.509.4.732ZM.75.125.64.084a.023.023,0,0,1,0-.042L.75,0,.791-.11A.023.023,0,0,1,.813-.125.023.023,0,0,1,.834-.11L.875,0l.11.041a.023.023,0,0,1,0,.042L.875.125.834.235a.023.023,0,0,1-.042,0Z" transform="translate(960.365 2241.195) rotate(70)"/>
    <path id="Path_46" data-name="Path 46" d="M12.793-14.172a.452.452,0,0,0-.293.422.452.452,0,0,0,.293.422L15-12.5l.828,2.207A.452.452,0,0,0,16.25-10a.452.452,0,0,0,.422-.293L17.5-12.5l2.207-.828A.452.452,0,0,0,20-13.75a.452.452,0,0,0-.293-.422L17.5-15l-.828-2.207a.452.452,0,0,0-.422-.293.452.452,0,0,0-.422.293L15-15Zm-4.781-.465A.623.623,0,0,0,7.445-15a.623.623,0,0,0-.566.363L4.816-10.184.363-8.125A.624.624,0,0,0,0-7.555a.618.618,0,0,0,.363.566L4.82-4.93,6.875-.477a.623.623,0,0,0,.566.363.623.623,0,0,0,.566-.363l2.059-4.457,4.457-2.059a.623.623,0,0,0,.363-.566.623.623,0,0,0-.363-.566L10.07-10.18,8.012-14.637ZM15-2.5l-2.207.828a.452.452,0,0,0-.293.422.452.452,0,0,0,.293.422L15,0l.828,2.207a.45.45,0,0,0,.844,0L17.5,0l2.207-.828A.452.452,0,0,0,20-1.25a.452.452,0,0,0-.293-.422L17.5-2.5l-.828-2.207A.452.452,0,0,0,16.25-5a.452.452,0,0,0-.422.293Z" transform="translate(972 2111)"/>
    <path id="Path_45" data-name="Path 45" d="M7.676-.5A.271.271,0,0,1,7.5-.75.271.271,0,0,1,7.676-1L9-1.5l.5-1.324A.271.271,0,0,1,9.75-3,.271.271,0,0,1,10-2.824L10.5-1.5l1.324.5A.271.271,0,0,1,12-.75a.271.271,0,0,1-.176.253L10.5,0,10,1.324a.27.27,0,0,1-.506,0L9,0ZM4.807-.218A.374.374,0,0,1,4.467,0a.374.374,0,0,1-.34-.218L2.89-2.89.218-4.125A.374.374,0,0,1,0-4.467a.371.371,0,0,1,.218-.34L2.892-6.042,4.125-8.714a.374.374,0,0,1,.34-.218.374.374,0,0,1,.34.218L6.04-6.04,8.714-4.8a.374.374,0,0,1,.218.34.374.374,0,0,1-.218.34L6.042-2.892ZM9-7.5,7.676-8A.271.271,0,0,1,7.5-8.25.271.271,0,0,1,7.676-8.5L9-9l.5-1.324A.271.271,0,0,1,9.75-10.5a.271.271,0,0,1,.253.176L10.5-9l1.324.5A.271.271,0,0,1,12-8.25.271.271,0,0,1,11.824-8L10.5-7.5,10-6.176A.271.271,0,0,1,9.75-6,.271.271,0,0,1,9.5-6.176Z" transform="translate(960 2287.931) rotate(180)"/>
    <path id="Path_44" data-name="Path 44" d="M5.757-6.377a.2.2,0,0,0-.132.19A.2.2,0,0,0,5.757-6l.993.373.373.993a.2.2,0,0,0,.19.132.2.2,0,0,0,.19-.132l.373-.993L8.868-6A.2.2,0,0,0,9-6.187a.2.2,0,0,0-.132-.19L7.875-6.75,7.5-7.743a.2.2,0,0,0-.19-.132.2.2,0,0,0-.19.132L6.75-6.75ZM3.605-6.587A.28.28,0,0,0,3.35-6.75a.28.28,0,0,0-.255.163l-.928,2-2,.926A.281.281,0,0,0,0-3.4a.278.278,0,0,0,.163.255l2.006.926.925,2a.28.28,0,0,0,.255.163A.28.28,0,0,0,3.6-.214L4.53-2.22l2.006-.926A.28.28,0,0,0,6.7-3.4a.28.28,0,0,0-.163-.255l-2-.925L3.605-6.587ZM6.75-1.125l-.993.373a.2.2,0,0,0-.132.19.2.2,0,0,0,.132.19L6.75,0l.373.993a.2.2,0,0,0,.38,0L7.875,0l.993-.373A.2.2,0,0,0,9-.562a.2.2,0,0,0-.132-.19l-.993-.373L7.5-2.118a.2.2,0,0,0-.19-.132.2.2,0,0,0-.19.132Z" transform="translate(972 2173)"/>
    <path id="Path_43" data-name="Path 43" d="M3.2.543a.113.113,0,0,1,0-.211L3.75.125l.207-.552A.113.113,0,0,1,4.063-.5a.113.113,0,0,1,.105.073l.207.552.552.207a.113.113,0,0,1,0,.211L4.375.75,4.168,1.3a.113.113,0,0,1-.211,0L3.75.75ZM2,.659a.156.156,0,0,1-.283,0L1.2-.454.091-.969A.156.156,0,0,1,0-1.111a.155.155,0,0,1,.091-.142l1.114-.515.514-1.113a.156.156,0,0,1,.142-.091A.156.156,0,0,1,2-2.881l.515,1.114,1.114.515a.156.156,0,0,1,.091.142.156.156,0,0,1-.091.142L2.518-.455,2,.659ZM3.75-2.375,3.2-2.582a.113.113,0,0,1-.073-.105A.113.113,0,0,1,3.2-2.793L3.75-3l.207-.552a.113.113,0,0,1,.105-.073.113.113,0,0,1,.105.073L4.375-3l.552.207A.113.113,0,0,1,5-2.687a.113.113,0,0,1-.073.105l-.552.207-.207.552a.113.113,0,0,1-.105.073.113.113,0,0,1-.105-.073Z" transform="translate(960 2320.78) rotate(180)"/>
  </g>
</svg>
