<svg xmlns="http://www.w3.org/2000/svg" width="740" height="1650.104" viewBox="0 0 740 1650.104">
  <path id="Union_9" data-name="Union 9" d="M600.886,1650.066c-41.718-.99-35.263-18.325-35.263-18.325l-8.431-647.2v74.755L434.37,1045.486c-4.346,64.328-7.766,113.411-7.766,113.411s-6.436-3.125-14.951,7.03c-2.623,3.128-5.4,4.078-9.054,6.792-9.019,6.7-20.33,11.79-31.067,11.618-16.746-.267-32.808-7.785-39.684-19.335a35.217,35.217,0,0,0-15.189-6.106s-3-47.068-7-110.526l-125.521,6.12-7.52,577.25s6.455,17.335-35.263,18.325c-1.043.025-2.057.037-3.048.037-38.633,0-38.037-18.362-38.037-18.362l-12.2-809.558,5.423-5.518c0-.055,0-.11,0-.166,0-22.091,19.923-40,44.5-40s44.5,17.908,44.5,40c0,.032,0,.066,0,.1h.755l3.914,5.585-2.074,159.174.021-.092,120.578,3.811c-5.112-81.841-10.711-172.809-13.677-225.35-.623-11.036-1.123-20.387-1.519-28.289C124.358,695.064,0,547.056,0,370,0,165.655,165.655,0,370,0S740,165.655,740,370c0,175.746-122.52,322.871-286.813,360.611-.278,12.98-1.135,34.09-3.025,67.957-2.67,47.866-7.4,121.212-11.926,189.27l118.914-6.57-2.072-159.085,3.914-5.585h.756c0-.032,0-.066,0-.1,0-22.091,19.923-40,44.5-40s44.5,17.908,44.5,40v.166l5.423,5.518-12.2,809.558s.6,18.361-38.036,18.362C602.943,1650.1,601.93,1650.092,600.886,1650.066Z"/>
</svg>
