<svg xmlns="http://www.w3.org/2000/svg" width="3276.859" height="5803" viewBox="0 0 3276.859 5803">
  <g id="Result" transform="translate(678.861 2440)">
    <path id="Union_5" data-name="Union 5" d="M196.935-2106.513c8.19-12.43,0,257.384,0,257.384Zm473-151c8.19-12.43,0,257.384,0,257.384Zm-1723-60.884c8.191-12.428,0,257.384,0,257.384Zm2781.747,89.235L319.972-3123.878c-.059-.04-6.7-4.416-18.25-10.766a491.808,491.808,0,0,0-49.795-23.682,485.174,485.174,0,0,0-73.91-23.683,426.927,426.927,0,0,0-43.676-7.8,381.734,381.734,0,0,0-46.916-2.961,384.29,384.29,0,0,0-47.022,2.961,434.871,434.871,0,0,0-43.949,7.8,500.055,500.055,0,0,0-74.741,23.683,512.506,512.506,0,0,0-50.625,23.682c-11.853,6.392-18.566,10.725-18.627,10.766L-1548.178-2349.96V-6966.007h3276.86v3546.2a1.469,1.469,0,0,0-.82.413v257.384c0-.075.334-6.463.82-16.717ZM663.948-3238.4v257.384c.026-.531,3.2-61.8,4.995-124.354,1.052-36.526,1.427-66.111,1.115-87.933-.39-27.285-1.86-42.456-4.369-45.094a1.169,1.169,0,0,0-.839-.42A1.392,1.392,0,0,0,663.948-3238.4Zm-2046.1-29.416a1.391,1.391,0,0,0-.9.416v257.384c.026-.531,3.2-61.8,4.995-124.354,1.052-36.517,1.427-66.1,1.115-87.933-.39-27.285-1.86-42.456-4.369-45.092a1.168,1.168,0,0,0-.834-.421Zm2528.924-79.812a1.391,1.391,0,0,0-.9.416v257.384c.026-.531,3.194-61.784,4.995-124.345,1.052-36.524,1.427-66.109,1.115-87.931-.39-27.285-1.86-42.459-4.367-45.1a1.17,1.17,0,0,0-.839-.421l0,0Zm-2047-29a1.391,1.391,0,0,0-.9.416v257.382c.026-.531,3.194-61.782,4.995-124.345,1.052-36.522,1.427-66.108,1.115-87.929-.39-27.285-1.86-42.459-4.367-45.1a1.171,1.171,0,0,0-.839-.421l0,0Zm581.989-72.188a1.4,1.4,0,0,0-.9.416v257.384c.028-.531,3.2-61.8,5-124.354,1.052-36.526,1.427-66.111,1.115-87.933-.39-27.285-1.86-42.456-4.369-45.094a1.165,1.165,0,0,0-.834-.42Zm520.829-82a1.392,1.392,0,0,0-.9.416v257.384c.026-.531,3.194-61.783,4.995-124.345,1.052-36.524,1.427-66.108,1.115-87.931-.39-27.285-1.86-42.459-4.367-45.1a1.171,1.171,0,0,0-.839-.421l0,0Zm735.453-118a1.391,1.391,0,0,0-.9.416v257.384c.026-.531,3.194-61.782,4.995-124.345,1.052-36.524,1.427-66.108,1.115-87.931-.39-27.285-1.86-42.459-4.367-45.1a1.171,1.171,0,0,0-.839-.421l0,0Zm-2047-28a1.391,1.391,0,0,0-.9.416v257.384c.026-.531,3.194-61.782,4.995-124.345,1.052-36.524,1.427-66.109,1.115-87.931-.39-27.285-1.86-42.459-4.367-45.1a1.171,1.171,0,0,0-.839-.421l0,0Zm988.548-357a1.392,1.392,0,0,0-.9.416v257.384c.026-.531,3.194-61.776,4.995-124.354,1.052-36.517,1.427-66.1,1.115-87.933-.392-27.285-1.86-42.456-4.369-45.094a1.165,1.165,0,0,0-.834-.419Zm1590.38-182.813a1.394,1.394,0,0,0-.9.416v257.384c.026-.531,3.194-61.776,4.995-124.355,1.052-36.517,1.427-66.1,1.115-87.931-.39-27.285-1.86-42.456-4.369-45.094a1.164,1.164,0,0,0-.834-.42Zm-2047.9-28.583v257.384c.026-.531,3.194-61.783,4.995-124.345,1.051-36.524,1.427-66.108,1.115-87.931-.39-27.285-1.86-42.459-4.367-45.1a1.171,1.171,0,0,0-.839-.421h0A1.391,1.391,0,0,0-577.929-4245.21Zm1783.947-121.216v124.076c.01-.226,1.448-30.066,2.253-60.087.474-17.635.64-31.9.5-42.414-.18-13.138-.85-20.4-1.99-21.6a.49.49,0,0,0-.355-.178A.611.611,0,0,0,1206.018-4366.426Zm-2047-29v124.076c.01-.226,1.448-30.062,2.253-60.087.474-17.638.64-31.909.5-42.414-.18-13.136-.85-20.4-1.99-21.6a.5.5,0,0,0-.355-.178A.612.612,0,0,0-840.982-4395.426ZM1106.935-2566.514c8.189-12.428,0,257.384,0,257.384Zm-1500-1.883c8.19-12.43,0,257.384,0,257.384Z" transform="translate(869.317 4526.007)"/>
    <rect id="Shape" width="1920" height="2522" transform="translate(0 841)" fill="none"/>
  </g>
</svg>
